#!OML:ASF F:\VICON\USERDATA\INSTALL\rory3\rory3.ASF
:FULLY-SPECIFIED
:DEGREES
33
root 0.276718 17.7148 -17.5994 3.83264 10.074 -1.61525
lowerback 15.6511 1.13223 4.40241
upperback -0.925587 2.40533 0.715274
thorax -9.6697 0.944362 -2.28684
lowerneck -19.4496 -6.12946 -1.82348
upperneck 14.1552 -8.50904 3.65752
head 7.79001 -3.78232 0.455706
rclavicle 3.60297e-014 -1.47101e-014
rhumerus -42.8396 19.5956 -106.085
rradius 110.955
rwrist -15.4932
rhand -28.5195 45.4669
rfingers 7.12502
rthumb -1.88766 15.4955
lclavicle 3.60297e-014 -1.47101e-014
lhumerus -64.9345 -3.66066 96.1559
lradius 111.361
lwrist 40.284
lhand -18.6196 5.91058
lfingers 7.12502
lthumb 7.67233 35.7514
rfemur 2.85087 6.2239 33.6929
rtibia 70.2454
rfoot 21.9053 -5.41702
rtoes 10.1136
lfemur -32.8107 2.67759 -25.9855
ltibia 35.4894
lfoot -2.82074 -21.3353
ltoes 12.0365
34
root 0.267198 17.6359 -17.129 3.57209 10.2768 -1.14909
lowerback 16.0324 1.05443 3.72491
upperback -0.730498 2.17466 0.596961
thorax -9.70591 0.866617 -1.98731
lowerneck -19.4514 -6.08591 -1.96332
upperneck 14.0137 -8.45575 3.93137
head 7.76154 -3.73989 0.575799
rclavicle -5.4964e-014 1.11319e-014
rhumerus -43.1851 19.194 -106.077
rradius 109.579
rwrist -13.9356
rhand -29.9881 46.1113
rfingers 7.12502
rthumb -3.30594 16.1572
lclavicle -5.4964e-014 1.11319e-014
lhumerus -63.9237 -4.02201 96.5979
lradius 111.453
lwrist 40.6559
lhand -19.0751 6.4779
lfingers 7.12502
lthumb 7.23266 36.3343
rfemur 0.590771 4.9475 32.5516
rtibia 75.0409
rfoot 22.071 -4.38426
rtoes 5.68145
lfemur -31.8978 2.40805 -26.2525
ltibia 37.8935
lfoot -7.55964 -20.2327
ltoes 10.5514
35
root 0.272105 17.551 -16.661 3.2761 10.2728 -0.463095
lowerback 16.4086 1.05433 2.98449
upperback -0.507728 2.01943 0.377009
thorax -9.69866 0.825788 -1.77724
lowerneck -19.2514 -6.11162 -2.156
upperneck 13.7895 -8.48953 4.25401
head 7.6788 -3.74236 0.715412
rclavicle -8.94531e-015 -2.78299e-015
rhumerus -43.5335 18.6295 -105.939
rradius 108.039
rwrist -12.308
rhand -30.7654 48.4113
rfingers 7.12502
rthumb -4.05663 18.4701
lclavicle -8.94531e-015 -2.78299e-015
lhumerus -62.8519 -4.49506 97.1188
lradius 111.534
lwrist 41.1994
lhand -19.1883 6.80887
lfingers 7.12502
lthumb 7.12342 36.669
rfemur -1.30679 4.12418 30.9973
rtibia 79.7004
rfoot 21.1463 -5.39057
rtoes 6.05766
lfemur -30.6342 1.93082 -26.765
ltibia 40.0102
lfoot -10.1685 -19.7205
ltoes 17.6955
36
root 0.276922 17.4315 -16.2089 3.13932 10.374 0.193057
lowerback 16.737 0.958725 2.32425
upperback -0.355372 1.74783 0.145316
thorax -9.74152 0.722906 -1.59495
lowerneck -19.4166 -6.09865 -2.17244
upperneck 13.8537 -8.4932 4.38508
head 7.73555 -3.7274 0.75493
rclavicle 6.49032e-014 1.66979e-014
rhumerus -43.9265 18.2713 -106
rradius 106.348
rwrist -10.8759
rhand -31.4688 50.4524
rfingers 7.12502
rthumb -4.73582 20.5253
lclavicle 6.49032e-014 1.66979e-014
lhumerus -61.4571 -4.92748 97.6142
lradius 111.27
lwrist 41.96
lhand -19.489 7.13594
lfingers 7.12502
lthumb 6.83316 37.0057
rfemur -3.8323 2.85979 29.2656
rtibia 84.5225
rfoot 20.0624 -5.85602
rtoes 5.38245
lfemur -29.8065 1.25342 -27.3281
ltibia 42.0056
lfoot -11.4498 -19.5071
ltoes 21.4636
37
root 0.28249 17.3967 -15.7448 3.16205 10.4928 0.822049
lowerback 17.2178 0.794465 1.6234
upperback -0.302753 1.38196 -0.0388568
thorax -9.98261 0.574942 -1.31684
lowerneck -19.7892 -6.09543 -2.15151
upperneck 13.8387 -8.48442 4.36547
head 7.7911 -3.71748 0.736705
rclavicle 7.60351e-015 -3.97569e-016
rhumerus -44.4094 18.0346 -106.121
rradius 104.666
rwrist -10.0192
rhand -31.5943 51.275
rfingers 7.12502
rthumb -4.85699 21.3506
lclavicle 7.60351e-015 -3.97569e-016
lhumerus -59.7325 -5.16486 98.0474
lradius 110.693
lwrist 43.0434
lhand -19.6657 7.24708
lfingers 7.12502
lthumb 6.66257 37.1223
rfemur -6.63116 1.52415 27.4902
rtibia 88.9661
rfoot 19.2775 -6.06032
rtoes 4.97135
lfemur -28.6139 0.494599 -27.9218
ltibia 43.4837
lfoot -15.3443 -15.0831
ltoes 14.4449
38
root 0.295218 17.3204 -15.3056 3.35668 10.3826 1.65987
lowerback 17.5433 0.683789 0.792288
upperback -0.255118 1.04079 -0.318839
thorax -10.1344 0.445408 -1.06788
lowerneck -20.0232 -6.04844 -2.14858
upperneck 13.6906 -8.44821 4.57093
head 7.79027 -3.67817 0.804078
rclavicle 3.42904e-015 -6.36111e-015
rhumerus -44.8077 17.8245 -106.18
rradius 103.044
rwrist -9.73428
rhand -31.4387 51.1782
rfingers 7.12502
rthumb -4.70679 21.2505
lclavicle 3.42904e-015 -6.36111e-015
lhumerus -57.8282 -5.45594 98.3425
lradius 110.157
lwrist 44.4644
lhand -18.6828 7.9732
lfingers 7.12502
lthumb 7.61131 37.8162
rfemur -9.795 0.0845536 25.1814
rtibia 93.4984
rfoot 18.5069 -5.7926
rtoes 6.8733
lfemur -27.2408 -0.145259 -28.9202
ltibia 44.764
lfoot -18.4758 -11.1883
ltoes 9.95823
39
root 0.317744 17.2334 -14.8597 3.9643 9.6078 2.56808
lowerback 17.1757 0.810787 -0.184303
upperback -0.276655 0.974339 -0.663231
thorax -9.9613 0.454742 -0.864052
lowerneck -20.1761 -5.95288 -2.12758
upperneck 13.588 -8.36957 4.85441
head 7.79277 -3.61034 0.901371
rclavicle 3.37934e-015 -7.95139e-016
rhumerus -45.2124 17.43 -106.151
rradius 101.68
rwrist -9.29186
rhand -30.8718 51.6167
rfingers 7.12502
rthumb -4.15933 21.6776
lclavicle 3.37934e-015 -7.95139e-016
lhumerus -55.8076 -5.88712 98.5561
lradius 109.594
lwrist 45.9438
lhand -17.6674 9.02548
lfingers 7.12502
lthumb 8.59131 38.8307
rfemur -13.6026 -0.853185 22.7377
rtibia 97.8346
rfoot 17.8952 -5.45402
rtoes 11.9086
lfemur -26.0586 -0.50479 -29.9773
ltibia 45.5954
lfoot -20.5687 -8.20973
ltoes 7.78949
